<svg width="16" height="16" viewBox="0 0 16 16" fill="none" xmlns="http://www.w3.org/2000/svg">
<g clip-path="url(#clip0_2404_26622)">
<path d="M10.3097 0.0924074C10.2363 0.0151368 10.1358 -0.03125 10.0315 -0.03125H3.78992C2.63819 -0.03125 1.6875 0.915651 1.6875 2.06726V13.8701C1.6875 15.0219 2.63819 15.9688 3.78992 15.9688H12.2614C13.4131 15.9688 14.3638 15.0219 14.3638 13.8701V4.49818C14.3638 4.39771 14.3174 4.30115 14.2517 4.22767L10.3097 0.0924074ZM10.4218 1.33301L13.0614 4.10401H11.3455C10.8353 4.10401 10.4218 3.69434 10.4218 3.18421V1.33301ZM12.2614 15.1958H3.78992C3.06726 15.1958 2.46045 14.5968 2.46045 13.8701V2.06726C2.46045 1.34461 3.06336 0.741701 3.78992 0.741701H9.64882V3.18421C9.64882 4.1233 10.4064 4.87696 11.3455 4.87696H13.5908V13.8701C13.5908 14.5968 12.9879 15.1958 12.2614 15.1958Z" fill="#001F5C"/>
<path d="M11.2063 12.5293H4.84497C4.63245 12.5293 4.4585 12.7031 4.4585 12.9158C4.4585 13.1283 4.63245 13.3023 4.84497 13.3023H11.2102C11.4227 13.3023 11.5967 13.1283 11.5967 12.9158C11.5967 12.7031 11.4227 12.5293 11.2063 12.5293Z" fill="#001F5C"/>
<path d="M7.74345 11.1422C7.81694 11.2195 7.9174 11.2659 8.02555 11.2659C8.13383 11.2659 8.2343 11.2195 8.30766 11.1422L10.5724 8.71132C10.7193 8.55665 10.7077 8.30934 10.5531 8.16639C10.3985 8.01954 10.1512 8.03102 10.0082 8.18568L8.41203 9.89772V5.67749C8.41203 5.46484 8.23808 5.29102 8.02555 5.29102C7.81303 5.29102 7.63908 5.46484 7.63908 5.67749V9.89772L6.04679 8.18568C5.89994 8.03114 5.65641 8.01954 5.50187 8.16639C5.34733 8.31324 5.33573 8.55677 5.48258 8.71132L7.74345 11.1422Z" fill="#001F5C"/>
</g>
<defs>
<clipPath id="clip0_2404_26622">
<rect width="16" height="16" fill="white"/>
</clipPath>
</defs>
</svg>
