<svg width="16" height="20" viewBox="0 0 16 20" fill="none" xmlns="http://www.w3.org/2000/svg">
<path d="M8 17.3337L7.4453 18.1657C7.7812 18.3896 8.2188 18.3896 8.5547 18.1657L8 17.3337ZM8 17.3337C8.5547 18.1657 8.55494 18.1655 8.55521 18.1654L8.55585 18.1649L8.55755 18.1638L8.56259 18.1604L8.57908 18.1493C8.59287 18.1399 8.61222 18.1267 8.63675 18.1097C8.68581 18.0757 8.75565 18.0267 8.8433 17.9633C9.01852 17.8368 9.26551 17.6529 9.56043 17.418C10.1487 16.9496 10.9356 16.2723 11.726 15.4381C13.2657 13.8127 15 11.4023 15 8.66699C15 6.81048 14.2625 5.03 12.9497 3.71724C11.637 2.40449 9.85652 1.66699 8 1.66699C6.14349 1.66699 4.36301 2.40449 3.05025 3.71724C1.7375 5.03 1 6.81048 1 8.66699C1 11.4023 2.73426 13.8127 4.27405 15.4381C5.06439 16.2723 5.85133 16.9496 6.43957 17.418C6.73449 17.6529 6.98148 17.8368 7.1567 17.9633C7.24435 18.0267 7.31419 18.0757 7.36325 18.1097C7.38778 18.1267 7.40713 18.1399 7.42092 18.1493L7.43741 18.1604L7.44245 18.1638L7.44415 18.1649L7.44479 18.1654C7.44506 18.1655 7.4453 18.1657 8 17.3337Z" fill="#0097CE" stroke="white" stroke-width="2" stroke-linecap="round" stroke-linejoin="round"/>
<path d="M8 10.667C9.10457 10.667 10 9.77156 10 8.66699C10 7.56242 9.10457 6.66699 8 6.66699C6.89543 6.66699 6 7.56242 6 8.66699C6 9.77156 6.89543 10.667 8 10.667Z" fill="white"/>
</svg>
