<svg xmlns="http://www.w3.org/2000/svg" xmlns:xlink="http://www.w3.org/1999/xlink" version="1.1" id="Layer_1" x="0px" y="0px" viewBox="0 0 136.2 31.6" style="enable-background:new 0 0 136.2 31.6;" xml:space="preserve">
<style type="text/css">
	.st0{clip-path:url(#SVGID_2_);}
	.st1{clip-path:url(#SVGID_4_);}
	.st2{clip-path:url(#SVGID_6_);}
	.st3{clip-path:url(#SVGID_8_);}
	.st4{enable-background:new    ;}
	.st5{clip-path:url(#SVGID_10_);}
	.st6{opacity:0;}
	.st7{clip-path:url(#SVGID_12_);}
	.st8{clip-path:url(#SVGID_14_);}
	.st9{clip-path:url(#SVGID_16_);}
	.st10{clip-path:url(#SVGID_18_);}
	.st11{clip-path:url(#SVGID_20_);}
	.st12{clip-path:url(#SVGID_22_);}
	.st13{clip-path:url(#SVGID_24_);}
	.st14{clip-path:url(#SVGID_26_);}
	.st15{clip-path:url(#SVGID_28_);}
	.st16{clip-path:url(#SVGID_30_);}
	.st17{clip-path:url(#SVGID_32_);}
	.st18{clip-path:url(#SVGID_34_);}
	.st19{clip-path:url(#SVGID_36_);fill:#FEFEFE;}
	.st20{clip-path:url(#SVGID_38_);}
	.st21{clip-path:url(#SVGID_40_);fill:#FEFEFE;}
	.st22{clip-path:url(#SVGID_42_);}
	.st23{clip-path:url(#SVGID_44_);fill:#FEFEFE;}
	.st24{clip-path:url(#SVGID_46_);}
	.st25{clip-path:url(#SVGID_48_);fill:#FEFEFE;}
	.st26{clip-path:url(#SVGID_50_);}
	.st27{clip-path:url(#SVGID_52_);fill:#FEFEFE;}
	.st28{clip-path:url(#SVGID_54_);}
	.st29{fill:#FEFEFE;}
	.st30{clip-path:url(#SVGID_56_);fill:#FEFEFE;}
	.st31{fill:none;}
	.st32{fill:#ED1C24;}
</style>
<g>
	<g>
		<defs>
			<rect id="SVGID_1_" x="-512" y="-1689.3" width="30.9" height="30.9"/>
		</defs>
		<clipPath id="SVGID_2_">
			<use xlink:href="#SVGID_1_" style="overflow:visible;"/>
		</clipPath>
		<g class="st0">
			<g>
				<defs>
					<rect id="SVGID_3_" x="-883" y="-1762.3" width="1901" height="3574"/>
				</defs>
				<clipPath id="SVGID_4_">
					<use xlink:href="#SVGID_3_" style="overflow:visible;"/>
				</clipPath>
				<g class="st1">
					<g>
						<g>
							<defs>
								<rect id="SVGID_5_" x="-513" y="-1690.3" width="33" height="34"/>
							</defs>
							<clipPath id="SVGID_6_">
								<use xlink:href="#SVGID_5_" style="overflow:visible;"/>
							</clipPath>
							<g class="st2">
								<g>
									<defs>
										<path id="SVGID_7_" d="M-487.6-1680.6c-0.2-4-1.6-7.1-4.3-8.2c-2.8-1.2-6.3,0.2-9.4,3.3c-5-0.3-9,1.2-10.3,4.2            c-1.2,2.8,0.2,6.3,3.3,9.4c-1.2,6.2,0.2,11.6,3.9,13.2c3.7,1.6,8.7-1.4,12.3-6.9c0,0,0,0,0-0.1c0.2-0.3,0.4-0.7,0.6-1            c0,0,0-0.1,0.1-0.1l0,0c0,0-0.3,1-0.8,2.3c5.1,0.4,9.4-1,10.7-4.2C-480-1672.4-482.7-1677.1-487.6-1680.6 M-495.4-1670.5            L-495.4-1670.5c-0.2,0.4-0.4,0.7-0.6,1.1c0,0.1-0.1,0.1-0.1,0.2c-0.2,0.3-0.3,0.6-0.5,1v0.1v0.1c0,0,0.4-1.1,0.6-2.6            c-0.7-0.2-1.3-0.5-2-0.8c-2.7-1.1-5.2-2.5-7.1-3.9c0.1-0.4,0.3-0.8,0.5-1.1c1.2-2.8,2.6-5.2,4-7.1            c2.1,0.4,4.5,1.1,6.8,2.1c0.6,0.2,1.1,0.5,1.6,0.7c-0.3,2.5-1.1,5.5-2.4,8.5C-494.8-1671.7-495.1-1671.1-495.4-1670.5             M-494-1687.9c1.3,0.5,1.9,2.3,1.9,4.7c-0.3-0.1-0.6-0.3-0.9-0.4c-2.1-0.9-4.2-1.5-6.3-1.8            C-497.3-1687.5-495.4-1688.5-494-1687.9 M-509.4-1682.2c0.7-1.6,3.2-2.2,6.6-1.8c-1.5,1.8-2.9,4.1-3.9,6.6            c-0.1,0.2-0.1,0.3-0.2,0.5C-509-1678.8-510-1680.7-509.4-1682.2 M-498.6-1665.2c-2.4,3.2-4.9,4.9-6.6,4.2            c-2-0.8-2.4-4.6-1.4-9.5c1.8,1.5,4,2.8,6.5,3.8c0.7,0.3,1.3,0.5,2,0.8l0,0h0.1c0.4,0.1,0.7,0.2,1,0.3            c0.1,0,0.2,0.1,0.3,0.1c0.3,0.1,0.7,0.2,1,0.2c0.1,0,0.1,0,0.2,0C-495.7-1665.2-497-1665.1-498.6-1665.2 M-482.5-1670.9            c-0.7,1.8-3.8,2.3-7.9,1.7c-0.3,0-0.5-0.1-0.8-0.1c-0.1,0-0.3-0.1-0.4-0.1c-0.3-0.1-0.5-0.1-0.8-0.2c-0.1,0-0.2,0-0.3-0.1            c0.4,0,1.5,0,2.9-0.2c0.1-0.1,0.1-0.2,0.2-0.4c1.1-2.7,1.8-5.5,2-8C-483.9-1675.7-481.7-1672.8-482.5-1670.9"/>
									</defs>
									<clipPath id="SVGID_8_">
										<use xlink:href="#SVGID_7_" style="overflow:visible;"/>
									</clipPath>
									<g class="st3">
										<g class="st4">
											<defs>
												<rect id="SVGID_9_" x="-512" y="-1689.3" class="st4" width="31" height="29"/>
											</defs>
											<clipPath id="SVGID_10_">
												<use xlink:href="#SVGID_9_" style="overflow:visible;"/>
											</clipPath>
											<g class="st5">
												<g class="st6">
													<g class="st6">
														<g>
															<defs>
																<rect id="SVGID_11_" x="-512" y="-1689.3" width="31" height="29"/>
															</defs>
															<clipPath id="SVGID_12_">
																<use xlink:href="#SVGID_11_" style="overflow:visible;"/>
															</clipPath>
															<g class="st7">
															</g>
														</g>
													</g>
												</g>
												<g>
													<defs>
														<rect id="SVGID_13_" x="-512" y="-1689.3" width="31" height="29"/>
													</defs>
													<clipPath id="SVGID_14_">
														<use xlink:href="#SVGID_13_" style="overflow:visible;"/>
													</clipPath>
													<g class="st8">
														<g>
															<g>
																<defs>
																	<rect id="SVGID_15_" x="-512" y="-1689.3" width="31" height="29"/>
																</defs>
																<clipPath id="SVGID_16_">
																	<use xlink:href="#SVGID_15_" style="overflow:visible;"/>
																</clipPath>
																<g class="st9">
																</g>
															</g>
														</g>
													</g>
												</g>
											</g>
										</g>
									</g>
								</g>
							</g>
							<g class="st2">
								<g>
									<defs>
										<rect id="SVGID_17_" x="-512" y="-1689.3" width="30.9" height="30.9"/>
									</defs>
									<clipPath id="SVGID_18_">
										<use xlink:href="#SVGID_17_" style="overflow:visible;"/>
									</clipPath>
									<g class="st10">
										<g>
											<defs>
												<rect id="SVGID_19_" x="-883" y="-1762.3" width="1901" height="3574"/>
											</defs>
											<clipPath id="SVGID_20_">
												<use xlink:href="#SVGID_19_" style="overflow:visible;"/>
											</clipPath>
											<g class="st11">
												<g>
													<g>
														<defs>
															<rect id="SVGID_21_" x="-513" y="-1690.3" width="33" height="34"/>
														</defs>
														<clipPath id="SVGID_22_">
															<use xlink:href="#SVGID_21_" style="overflow:visible;"/>
														</clipPath>
														<g class="st12">
															<g>
																<defs>
																	<path id="SVGID_23_" d="M-487.6-1680.6c-0.2-4-1.6-7.1-4.3-8.2c-2.8-1.2-6.3,0.2-9.4,3.3c-5-0.3-9,1.2-10.3,4.2                   c-1.2,2.8,0.2,6.3,3.3,9.4c-1.2,6.2,0.2,11.6,3.9,13.2c3.7,1.6,8.7-1.4,12.3-6.9c0,0,0,0,0-0.1                   c0.2-0.3,0.4-0.7,0.6-1c0,0,0-0.1,0.1-0.1l0,0c0,0-0.3,1-0.8,2.3c5.1,0.4,9.4-1,10.7-4.2                   C-480-1672.4-482.7-1677.1-487.6-1680.6 M-495.4-1670.5L-495.4-1670.5c-0.2,0.4-0.4,0.7-0.6,1.1                   c0,0.1-0.1,0.1-0.1,0.2c-0.2,0.3-0.3,0.6-0.5,1v0.1v0.1c0,0,0.4-1.1,0.6-2.6c-0.7-0.2-1.3-0.5-2-0.8                   c-2.7-1.1-5.2-2.5-7.1-3.9c0.1-0.4,0.3-0.8,0.5-1.1c1.2-2.8,2.6-5.2,4-7.1c2.1,0.4,4.5,1.1,6.8,2.1                   c0.6,0.2,1.1,0.5,1.6,0.7c-0.3,2.5-1.1,5.5-2.4,8.5C-494.8-1671.7-495.1-1671.1-495.4-1670.5 M-494-1687.9                   c1.3,0.5,1.9,2.3,1.9,4.7c-0.3-0.1-0.6-0.3-0.9-0.4c-2.1-0.9-4.2-1.5-6.3-1.8                   C-497.3-1687.5-495.4-1688.5-494-1687.9 M-509.4-1682.2c0.7-1.6,3.2-2.2,6.6-1.8c-1.5,1.8-2.9,4.1-3.9,6.6                   c-0.1,0.2-0.1,0.3-0.2,0.5C-509-1678.8-510-1680.7-509.4-1682.2 M-498.6-1665.2c-2.4,3.2-4.9,4.9-6.6,4.2                   c-2-0.8-2.4-4.6-1.4-9.5c1.8,1.5,4,2.8,6.5,3.8c0.7,0.3,1.3,0.5,2,0.8l0,0h0.1c0.4,0.1,0.7,0.2,1,0.3                   c0.1,0,0.2,0.1,0.3,0.1c0.3,0.1,0.7,0.2,1,0.2c0.1,0,0.1,0,0.2,0C-495.7-1665.2-497-1665.1-498.6-1665.2                    M-482.5-1670.9c-0.7,1.8-3.8,2.3-7.9,1.7c-0.3,0-0.5-0.1-0.8-0.1c-0.1,0-0.3-0.1-0.4-0.1                   c-0.3-0.1-0.5-0.1-0.8-0.2c-0.1,0-0.2,0-0.3-0.1c0.4,0,1.5,0,2.9-0.2c0.1-0.1,0.1-0.2,0.2-0.4c1.1-2.7,1.8-5.5,2-8                   C-483.9-1675.7-481.7-1672.8-482.5-1670.9"/>
																</defs>
																<clipPath id="SVGID_24_">
																	<use xlink:href="#SVGID_23_" style="overflow:visible;"/>
																</clipPath>
																<g class="st13">
																	<g class="st4">
																		<defs>
																			<rect id="SVGID_25_" x="-512" y="-1689.3" class="st4" width="31" height="29"/>
																		</defs>
																		<clipPath id="SVGID_26_">
																			<use xlink:href="#SVGID_25_" style="overflow:visible;"/>
																		</clipPath>
																		<g class="st14">
																			<g class="st6">
																				<g class="st6">
																					<g>
																						<defs>
																							<rect id="SVGID_27_" x="-512" y="-1689.3" width="31" height="29"/>
																						</defs>
																						<clipPath id="SVGID_28_">
																							<use xlink:href="#SVGID_27_" style="overflow:visible;"/>
																						</clipPath>
																						<g class="st15">
																						</g>
																					</g>
																				</g>
																			</g>
																			<g>
																				<defs>
																					<rect id="SVGID_29_" x="-512" y="-1689.3" width="31" height="29"/>
																				</defs>
																				<clipPath id="SVGID_30_">
																					<use xlink:href="#SVGID_29_" style="overflow:visible;"/>
																				</clipPath>
																				<g class="st16">
																					<g>
																						<g>
																							<defs>
																								<rect id="SVGID_31_" x="-512" y="-1689.3" width="31" height="29"/>
																							</defs>
																							<clipPath id="SVGID_32_">
																								<use xlink:href="#SVGID_31_" style="overflow:visible;"/>
																							</clipPath>
																							<g class="st17">
																							</g>
																						</g>
																					</g>
																				</g>
																			</g>
																		</g>
																	</g>
																</g>
															</g>
														</g>
														<g class="st12">
															<g>
																<defs>
																	<path id="SVGID_33_" d="M-466.5-1676.1c0-1.4-0.4-2.4-1.1-2.9s-1.7-0.8-2.9-0.8c-0.4,0-0.8,0-1.2,0.1                   c-0.3,0.1-0.6,0.1-0.9,0.2l0,0c-0.3,0.1-0.5,0.2-0.6,0.4c-0.2,0.1-0.3,0.3-0.4,0.4c-0.2,0.3-0.4,0.6-0.4,0.8                   c-0.1,0.3-0.1,0.5-0.1,0.6c0,0.3,0,0.6,0.1,0.8c0.1,0.2,0.1,0.4,0.3,0.6c0.3,0.3,0.6,0.6,0.9,0.7                   c0.5,0.2,1,0.3,1.5,0.5c0.6,0.2,1.2,0.3,1.8,0.5l0,0c0.3,0.1,0.5,0.1,0.8,0.2s0.5,0.1,0.8,0.2l0,0                   c0.3,0.1,0.5,0.2,0.8,0.3c0.2,0.1,0.5,0.2,0.7,0.4l0,0c0.5,0.3,0.8,0.6,1.1,1.1c0.3,0.5,0.4,1,0.4,1.7                   c0,1.4-0.6,2.4-1.6,3s-2.1,0.9-3.4,0.9c-3.7,0-5.6-1.8-5.6-5.3h1c0,2.9,1.6,4.3,4.6,4.3c0.5,0,1-0.1,1.4-0.2                   c0.5-0.1,0.9-0.3,1.3-0.5c0.8-0.4,1.2-1.2,1.3-2.2l0,0c0-0.5-0.1-1-0.3-1.3l0,0c-0.1-0.2-0.3-0.3-0.4-0.4                   c-0.2-0.1-0.3-0.2-0.5-0.4c-0.2-0.1-0.4-0.2-0.6-0.3c-0.2-0.1-0.5-0.2-0.8-0.3c-0.2-0.1-0.5-0.1-0.8-0.2l0,0                   c-0.1,0-0.3-0.1-0.4-0.1s-0.3-0.1-0.4-0.1c-0.6-0.1-1.2-0.3-1.7-0.4c-0.5-0.2-1-0.3-1.4-0.5l0,0                   c-1.2-0.5-1.8-1.5-1.8-3c0-0.9,0.4-1.6,1.1-2.4c0.4-0.4,0.9-0.7,1.5-0.9c0.3-0.1,0.6-0.2,1-0.2s0.8-0.1,1.2-0.1                   c3.3,0,5,1.5,5,4.7h-1.3V-1676.1z"/>
																</defs>
																<clipPath id="SVGID_34_">
																	<use xlink:href="#SVGID_33_" style="overflow:visible;"/>
																</clipPath>
																<g class="st18">
																	<g>
																		<defs>
																			<rect id="SVGID_35_" x="-883" y="-1762.3" width="1901" height="3574"/>
																		</defs>
																		<clipPath id="SVGID_36_">
																			<use xlink:href="#SVGID_35_" style="overflow:visible;"/>
																		</clipPath>
																		<rect x="-480.7" y="-1685.8" class="st19" width="20.6" height="24.3"/>
																	</g>
																</g>
																<g class="st18">
																	<g>
																		<defs>
																			<path id="SVGID_37_" d="M-454.7-1666.7c0-0.1,0-1.6,0-1.7s0-0.2,0-0.4v-0.2c-0.3,0.5-0.7,1-1.2,1.4l0,0                     c-0.9,0.7-2,1.1-3.3,1.1c-1.4,0-2.6-0.5-3.5-1.3c-0.9-0.9-1.4-2.1-1.4-3.7v-9h1v8.9c0,0.7,0.1,1.3,0.3,1.8                     c0.2,0.5,0.5,0.9,0.9,1.3c0.7,0.6,1.6,1,2.8,1c1.5,0,2.6-0.5,3.4-1.6c0.8-1,1.2-2.2,1.2-3.7v-7.7h1v9.1                     c0,0.3,0,0.6,0,0.9s0,0.5,0,0.8c0,0.2,0,0.3,0,0.4s0,0.3,0,0.4c0,0.3,0,2.1,0,2.2L-454.7-1666.7z"/>
																		</defs>
																		<clipPath id="SVGID_38_">
																			<use xlink:href="#SVGID_37_" style="overflow:visible;"/>
																		</clipPath>
																		<g class="st20">
																			<g>
																				<defs>
																					<rect id="SVGID_39_" x="-883" y="-1762.3" width="1901" height="3574"/>
																				</defs>
																				<clipPath id="SVGID_40_">
																					<use xlink:href="#SVGID_39_" style="overflow:visible;"/>
																				</clipPath>
																				<rect x="-469.2" y="-1685.5" class="st21" width="20.5" height="24"/>
																			</g>
																		</g>
																		<g class="st20">
																			<g>
																				<defs>
																					<path id="SVGID_41_" d="M-446.5-1666.6c-2.5-0.1-4.2-1-5.1-3v7.8h-1v-6.8c0-0.1,0-0.2,0-0.3c0-0.1,0-0.3,0-0.4                       c0-0.2,0-0.5,0-0.7c0-0.3,0-0.5,0-0.9c0-0.5,0-1,0-1.6s0-1.1,0.1-1.6c0-0.5,0.1-1,0.2-1.5s0.2-0.8,0.3-1.2l0,0                       c0.4-1.2,1.1-2.2,2-3l0,0c1-0.8,2.2-1.2,3.6-1.2c1.8,0,3.3,0.7,4.3,2.1c1,1.3,1.5,3,1.5,5.1c0,2-0.5,3.7-1.5,5                       C-443.1-1667.3-444.5-1666.6-446.5-1666.6 M-451.6-1673.8c0,2,0.5,3.5,1.4,4.6c0.9,1,2.1,1.6,3.7,1.6                       c0.9,0,1.6-0.2,2.2-0.5s1.1-0.8,1.5-1.4c0.8-1.3,1.1-2.7,1.1-4.3c0-1.7-0.4-3.1-1.2-4.3                       c-0.8-1.2-2-1.8-3.6-1.8s-2.9,0.6-3.7,1.8C-451.1-1676.9-451.6-1675.4-451.6-1673.8"/>
																				</defs>
																				<clipPath id="SVGID_42_">
																					<use xlink:href="#SVGID_41_" style="overflow:visible;"/>
																				</clipPath>
																				<g class="st22">
																					<g>
																						<defs>
																							<rect id="SVGID_43_" x="-883" y="-1762.3" width="1901" height="3574"/>
																						</defs>
																						<clipPath id="SVGID_44_">
																							<use xlink:href="#SVGID_43_" style="overflow:visible;"/>
																						</clipPath>
																						<rect x="-457.6" y="-1685.9" class="st23" width="22" height="29.2"/>
																					</g>
																				</g>
																				<g class="st22">
																					<g>
																						<defs>
																							<path id="SVGID_45_" d="M-438.8-1673.3c0,0.9,0.1,1.6,0.3,2.3c0.2,0.7,0.5,1.3,0.9,1.8                         c0.8,1.1,2,1.7,3.8,1.7c2.7,0,4.4-1.5,4.9-4.4h1c-0.2,1.8-0.9,3.1-1.9,4c-1.1,0.9-2.4,1.4-4,1.4                         c-2.1,0-3.6-0.7-4.6-2.1l0,0c-1-1.3-1.5-3-1.4-5.1c0-2.3,0.7-4.1,1.9-5.3l0,0c1.2-1.2,2.6-1.9,4.2-1.9                         c1.1,0,2,0.2,2.8,0.6s1.4,0.9,1.9,1.6c0.2,0.3,0.4,0.7,0.5,1c0.2,0.4,0.3,0.7,0.4,1.1s0.2,0.8,0.3,1.2                         c0.1,0.4,0.1,0.8,0.1,1.2c0,0.1,0,0.2,0,0.2c0,0.1,0,0.2,0,0.5h-11.1V-1673.3z M-428.8-1674.3                         c0-0.8-0.1-1.5-0.3-2.1c-0.2-0.6-0.5-1.2-0.9-1.7c-0.8-1.1-2.1-1.6-3.7-1.6c-1.4,0-2.5,0.5-3.5,1.5                         c-0.5,0.5-0.8,1.1-1.1,1.7c-0.3,0.7-0.4,1.4-0.5,2.3h10V-1674.3z"/>
																						</defs>
																						<clipPath id="SVGID_46_">
																							<use xlink:href="#SVGID_45_" style="overflow:visible;"/>
																						</clipPath>
																						<g class="st24">
																							<g>
																								<defs>
																									<rect id="SVGID_47_" x="-883" y="-1762.3" width="1901" height="3574"/>
																								</defs>
																								<clipPath id="SVGID_48_">
																									<use xlink:href="#SVGID_47_" style="overflow:visible;"/>
																								</clipPath>
																								<rect x="-444.8" y="-1685.8" class="st25" width="22.1" height="24.3"/>
																							</g>
																						</g>
																						<g class="st24">
																							<g>
																								<defs>
																									<path id="SVGID_49_" d="M-425.7-1666.8h-1v-13.7h1v2.3c0.3-0.6,0.7-1.1,1.2-1.5c0.4-0.4,1-0.6,1.7-0.8                           c0.7-0.2,1.4-0.3,2.3-0.2v1c-1.9,0-3.2,0.5-4,1.5c-0.8,1.1-1.2,2.3-1.2,3.8V-1666.8z"/>
																								</defs>
																								<clipPath id="SVGID_50_">
																									<use xlink:href="#SVGID_49_" style="overflow:visible;"/>
																								</clipPath>
																								<g class="st26">
																									<g>
																										<defs>
																											<rect id="SVGID_51_" x="-883" y="-1762.3" width="1901" height="3574"/>
																										</defs>
																										<clipPath id="SVGID_52_">
																											<use xlink:href="#SVGID_51_" style="overflow:visible;"/>
																										</clipPath>
																										<rect x="-431.8" y="-1685.8" class="st27" width="16.2" height="24"/>
																									</g>
																								</g>
																								<g class="st26">
																									<g>
																										<defs>
																											<path id="SVGID_53_" d="M-419.5-1685.6h2.2v6.7c0.5-0.6,1.1-1.1,1.8-1.5c0.7-0.3,1.4-0.5,2.3-0.5                             c1.7,0,3.1,0.6,4.1,1.7c1.1,1.2,1.6,2.9,1.6,5.1c0,2.1-0.5,3.9-1.6,5.3c-1,1.4-2.5,2.1-4.3,2.1                             c-1,0-1.9-0.2-2.6-0.7c-0.4-0.3-0.9-0.8-1.4-1.4v1.7h-2.1V-1685.6z M-410.8-1670c0.6-1,0.9-2.3,0.9-3.9                             c0-1.4-0.3-2.6-0.9-3.5s-1.5-1.4-2.7-1.4c-1,0-1.9,0.4-2.7,1.1c-0.8,0.8-1.2,2-1.2,3.8                             c0,1.3,0.2,2.3,0.5,3.1c0.6,1.5,1.7,2.2,3.4,2.2C-412.3-1668.5-411.4-1669-410.8-1670z"/>
																										</defs>
																										<clipPath id="SVGID_54_">
																											<use xlink:href="#SVGID_53_" style="overflow:visible;"/>
																										</clipPath>
																										<g class="st28">
																											<g>
																												<rect x="-424.5" y="-1690.6" class="st29" width="21.9" height="29"/>
																											</g>
																										</g>
																										<g class="st28">
																											<g>
																												<defs>
																													<rect id="SVGID_55_" x="-883" y="-1762.3" width="1901" height="3574"/>
																												</defs>
																												<clipPath id="SVGID_56_">
																													<use xlink:href="#SVGID_55_" style="overflow:visible;"/>
																												</clipPath>
																												<rect x="-411.3" y="-1690.6" class="st30" width="21.9" height="29"/>
																											</g>
																										</g>
																									</g>
																								</g>
																							</g>
																						</g>
																					</g>
																				</g>
																			</g>
																		</g>
																	</g>
																</g>
															</g>
														</g>
													</g>
												</g>
											</g>
										</g>
									</g>
								</g>
							</g>
						</g>
					</g>
				</g>
			</g>
		</g>
	</g>
</g>
<rect x="-883" y="-1762.3" class="st31" width="1901" height="3574"/>
<path class="st31" d="M-406.3-1685.6h2.2v6.7c0.5-0.6,1.1-1.1,1.8-1.5c0.7-0.3,1.4-0.5,2.3-0.5c1.7,0,3.1,0.6,4.1,1.7  c1.1,1.2,1.6,2.9,1.6,5.1c0,2.1-0.5,3.9-1.6,5.3c-1,1.4-2.5,2.1-4.3,2.1c-1,0-1.9-0.2-2.6-0.7c-0.4-0.3-0.9-0.8-1.4-1.4v1.7h-2.1  V-1685.6z M-397.6-1670c0.6-1,0.9-2.3,0.9-3.9c0-1.4-0.3-2.6-0.9-3.5s-1.5-1.4-2.7-1.4c-1,0-1.9,0.4-2.7,1.1c-0.8,0.8-1.2,2-1.2,3.8  c0,1.3,0.2,2.3,0.5,3.1c0.6,1.5,1.7,2.2,3.4,2.2C-399.2-1668.5-398.3-1669-397.6-1670z"/>
<g>
	<path class="st32" d="M24.9,8.9c-0.2-4.1-1.7-7.3-4.4-8.4c-2.9-1.2-6.4,0.2-9.6,3.3C5.9,3.5,1.7,5,0.4,8.1   c-1.2,2.9,0.2,6.4,3.3,9.6C2.5,24.1,4,29.6,7.7,31.2c3.8,1.6,8.9-1.4,12.6-7c0,0,0,0,0-0.1c0.2-0.3,0.4-0.7,0.6-1   c0,0,0-0.1,0.1-0.1l0,0c0,0-0.3,1-0.8,2.3c5.3,0.4,9.5-1.1,10.9-4.3C32.6,17.3,30,12.6,24.9,8.9z M16.9,19.3L16.9,19.3   c-0.2,0.4-0.4,0.8-0.6,1.1c0,0.1-0.1,0.1-0.1,0.2c-0.2,0.3-0.4,0.7-0.5,1c0,0,0,0.1-0.1,0.1l0,0.1c0,0,0.4-1.1,0.6-2.7   c-0.7-0.2-1.4-0.5-2.1-0.8c-2.8-1.2-5.3-2.6-7.2-4c0.1-0.4,0.3-0.8,0.5-1.2c1.2-2.8,2.6-5.3,4.1-7.3c2.2,0.4,4.5,1.1,7,2.1   c0.6,0.2,1.1,0.5,1.7,0.7c-0.3,2.6-1.1,5.6-2.4,8.7C17.5,18,17.2,18.7,16.9,19.3z M18.4,1.5c1.3,0.5,1.9,2.3,2,4.8   c-0.3-0.1-0.6-0.3-1-0.4C17.2,5,15,4.4,13,4.1C15,1.9,16.9,0.9,18.4,1.5z M2.7,7.4c0.7-1.6,3.3-2.2,6.8-1.9c-1.5,1.9-2.9,4.2-4,6.7   c-0.1,0.2-0.1,0.3-0.2,0.5C3.1,10.7,2.1,8.8,2.7,7.4z M13.7,24.7c-2.4,3.2-5,5-6.8,4.2c-2-0.9-2.5-4.7-1.4-9.7   c1.9,1.5,4.1,2.9,6.7,3.9c0.7,0.3,1.4,0.5,2.1,0.8c0,0,0,0,0,0c0,0,0.1,0,0.1,0c0.4,0.1,0.7,0.2,1.1,0.3c0.1,0,0.2,0.1,0.3,0.1   c0.3,0.1,0.7,0.2,1,0.3c0.1,0,0.1,0,0.2,0C16.6,24.7,15.4,24.8,13.7,24.7z M30.1,18.8c-0.8,1.8-3.9,2.4-8,1.7   c-0.3,0-0.6-0.1-0.8-0.1c-0.1,0-0.3-0.1-0.4-0.1c-0.3-0.1-0.5-0.1-0.8-0.2c-0.1,0-0.2,0-0.3-0.1c0.4,0,1.6,0,2.9-0.2   c0.1-0.1,0.1-0.2,0.2-0.4c1.2-2.8,1.8-5.6,2-8.2C28.7,13.9,30.9,16.9,30.1,18.8z"/>
	<g>
		<path d="M45.9,13.5c0-1.4-0.4-2.4-1.1-3c-0.7-0.5-1.7-0.8-3-0.8c-0.5,0-0.9,0-1.2,0.1C40.3,9.9,40,9.9,39.7,10l0,0    c-0.3,0.1-0.5,0.2-0.7,0.4c-0.2,0.1-0.3,0.3-0.5,0.5c-0.2,0.3-0.4,0.6-0.5,0.9c-0.1,0.3-0.1,0.5-0.1,0.6c0,0.3,0,0.6,0.1,0.8    c0.1,0.2,0.1,0.4,0.3,0.6c0.3,0.3,0.6,0.6,1,0.7c0.5,0.2,1,0.3,1.6,0.5s1.2,0.3,1.8,0.5l0,0c0.3,0.1,0.5,0.1,0.8,0.2    c0.3,0.1,0.5,0.2,0.8,0.2h0c0.3,0.1,0.5,0.2,0.8,0.3c0.2,0.1,0.5,0.2,0.7,0.4h0c0.5,0.3,0.8,0.6,1.1,1.1c0.3,0.5,0.4,1.1,0.4,1.8    c0,1.4-0.6,2.4-1.7,3.1c-1,0.6-2.2,0.9-3.5,0.9c-3.8,0-5.7-1.8-5.7-5.4h1c0,2.9,1.6,4.4,4.7,4.4c0.5,0,1-0.1,1.4-0.2    c0.5-0.1,0.9-0.3,1.4-0.5c0.8-0.5,1.3-1.2,1.3-2.2v0c0-0.5-0.1-1-0.3-1.3l0,0c-0.1-0.2-0.3-0.3-0.4-0.5c-0.2-0.1-0.3-0.3-0.6-0.4    c-0.2-0.1-0.4-0.2-0.7-0.3c-0.2-0.1-0.5-0.2-0.8-0.3c-0.2-0.1-0.5-0.1-0.8-0.2h0c-0.2,0-0.3-0.1-0.4-0.1c-0.1,0-0.3-0.1-0.4-0.1    c-0.6-0.1-1.2-0.3-1.7-0.4c-0.5-0.2-1-0.3-1.4-0.5l0,0c-1.2-0.5-1.8-1.5-1.8-3c0-0.9,0.4-1.7,1.1-2.4C38.5,9.5,39,9.2,39.6,9    c0.3-0.1,0.6-0.2,1-0.2c0.4,0,0.8-0.1,1.2-0.1c3.3,0,5.1,1.6,5.1,4.8H45.9z"/>
		<path d="M57.9,23.1c0-0.1,0-1.6,0-1.8c0-0.1,0-0.3,0-0.4v-0.2c-0.3,0.6-0.7,1-1.2,1.5v0c-0.9,0.7-2,1.1-3.4,1.1    c-1.4,0-2.6-0.5-3.6-1.4c-1-0.9-1.4-2.1-1.4-3.7V9h1v9.1c0,0.7,0.1,1.4,0.3,1.9c0.2,0.5,0.5,1,0.9,1.3c0.7,0.7,1.7,1,2.8,1    c1.5,0,2.7-0.6,3.5-1.6c0.8-1,1.2-2.3,1.2-3.8V9h1v9.3c0,0.3,0,0.6,0,0.9c0,0.3,0,0.5,0,0.8c0,0.2,0,0.3,0,0.4c0,0.1,0,0.3,0,0.4    c0,0.3,0,2.1,0,2.3L57.9,23.1z"/>
		<path d="M66.3,23.3c-2.6-0.1-4.3-1.1-5.2-3v7.9h-1v-7c0-0.1,0-0.2,0-0.4c0-0.1,0-0.3,0-0.5c0-0.2,0-0.5,0-0.8c0-0.3,0-0.6,0-0.9    c0-0.5,0-1,0-1.6c0-0.6,0-1.1,0.1-1.6c0-0.5,0.1-1,0.2-1.5c0.1-0.5,0.2-0.9,0.3-1.2v0c0.4-1.3,1.1-2.3,2.1-3v0    c1-0.8,2.2-1.2,3.6-1.2c1.9,0,3.4,0.7,4.4,2.1c1,1.3,1.6,3,1.6,5.2c0,2-0.5,3.8-1.5,5.1C69.8,22.5,68.3,23.2,66.3,23.3z     M61.1,15.9c0,2.1,0.5,3.6,1.4,4.7c0.9,1,2.2,1.6,3.8,1.6c0.9,0,1.6-0.2,2.3-0.5c0.6-0.3,1.1-0.8,1.5-1.4c0.8-1.3,1.2-2.7,1.2-4.4    c0-1.7-0.4-3.2-1.2-4.4c-0.8-1.2-2-1.8-3.7-1.9c-1.7,0-2.9,0.6-3.8,1.9C61.6,12.8,61.1,14.2,61.1,15.9z"/>
		<path d="M74.2,16.4c0,0.9,0.1,1.7,0.3,2.3c0.2,0.7,0.5,1.3,0.9,1.8c0.8,1.2,2.1,1.7,3.9,1.8c2.8,0,4.5-1.5,5-4.5h1    c-0.2,1.8-0.9,3.2-2,4.1c-1.1,0.9-2.5,1.4-4.1,1.4c-2.1,0-3.7-0.7-4.7-2.1v0c-1-1.4-1.5-3.1-1.5-5.2c0-2.3,0.7-4.1,1.9-5.4h0    c1.2-1.3,2.6-1.9,4.3-1.9c1.1,0,2,0.2,2.8,0.6c0.8,0.4,1.5,1,2,1.7c0.2,0.3,0.4,0.7,0.5,1c0.2,0.4,0.3,0.8,0.4,1.2    c0.1,0.4,0.2,0.8,0.3,1.2c0.1,0.4,0.1,0.8,0.1,1.2c0,0.1,0,0.2,0,0.2s0,0.3,0,0.5H74.2z M84.4,15.3c0-0.8-0.1-1.5-0.3-2.1    c-0.2-0.6-0.5-1.2-0.9-1.8c-0.9-1.1-2.1-1.7-3.8-1.7c-1.4,0-2.6,0.5-3.5,1.5c-0.5,0.5-0.8,1.1-1.1,1.8c-0.3,0.7-0.4,1.4-0.5,2.3    H84.4z"/>
		<path d="M87.5,23h-1V9h1v2.4c0.3-0.6,0.7-1.1,1.3-1.6c0.5-0.4,1-0.7,1.7-0.8c0.7-0.2,1.5-0.3,2.4-0.3v1c-1.9,0-3.3,0.5-4.1,1.5    c-0.8,1.1-1.2,2.4-1.2,3.9V23z"/>
		<path d="M94,4.1h2V23h-2V4.1z"/>
		<path d="M96.7,16c0-1,0.1-1.9,0.4-2.7c0.3-0.9,0.7-1.6,1.2-2.3c0.6-0.7,1.2-1.2,2-1.6c0.8-0.4,1.7-0.6,2.7-0.6    c1,0,1.9,0.2,2.7,0.6c0.8,0.4,1.5,0.9,2.1,1.6c0.5,0.7,0.9,1.4,1.2,2.3c0.3,0.9,0.4,1.8,0.4,2.7c0,1-0.1,1.9-0.4,2.7    c-0.3,0.8-0.7,1.6-1.2,2.3c-1.1,1.5-2.7,2.2-4.8,2.3c-1,0-1.9-0.2-2.7-0.6c-0.8-0.4-1.5-0.9-2-1.6c-0.5-0.7-0.9-1.5-1.2-2.3    C96.9,17.9,96.7,17,96.7,16z M98.7,16c0,0.7,0.1,1.4,0.3,2c0.2,0.6,0.5,1.2,0.9,1.7c0.7,1,1.8,1.5,3.2,1.6c1.4,0,2.5-0.5,3.3-1.6    c0.8-1,1.1-2.3,1.1-3.7c0-1.5-0.4-2.7-1.1-3.8c-0.7-1-1.8-1.5-3.3-1.6c-1.4,0-2.5,0.5-3.2,1.6c-0.4,0.5-0.7,1.1-0.9,1.7    C98.8,14.6,98.7,15.3,98.7,16z"/>
		<path d="M110.2,16c0-1,0.1-1.9,0.4-2.7c0.3-0.9,0.7-1.6,1.2-2.3c0.6-0.7,1.2-1.2,2-1.6c0.8-0.4,1.7-0.6,2.7-0.6    c1,0,1.9,0.2,2.7,0.6c0.8,0.4,1.5,0.9,2.1,1.6c0.5,0.7,0.9,1.4,1.2,2.3c0.3,0.9,0.4,1.8,0.4,2.7c0,1-0.1,1.9-0.4,2.7    c-0.3,0.8-0.7,1.6-1.2,2.3c-1.1,1.5-2.7,2.2-4.8,2.3c-1,0-1.9-0.2-2.7-0.6c-0.8-0.4-1.5-0.9-2-1.6c-0.5-0.7-0.9-1.5-1.2-2.3    C110.3,17.9,110.2,17,110.2,16z M112.2,16c0,0.7,0.1,1.4,0.3,2c0.2,0.6,0.5,1.2,0.9,1.7c0.7,1,1.8,1.5,3.2,1.6    c1.4,0,2.5-0.5,3.3-1.6c0.8-1,1.1-2.3,1.1-3.7c0-1.5-0.4-2.7-1.1-3.8c-0.7-1-1.8-1.5-3.3-1.6c-1.4,0-2.5,0.5-3.2,1.6    c-0.4,0.5-0.7,1.1-0.9,1.7C112.3,14.6,112.2,15.3,112.2,16z"/>
		<path d="M130.2,23.2c-0.9,0-1.7-0.2-2.5-0.5c-0.7-0.3-1.4-0.7-1.9-1.2v6.3h-2v-7.5c0,0,0-0.1,0-0.1c0,0,0-0.1,0-0.1v-1.1    c0-0.1,0-0.1,0-0.2c0-0.1,0-0.2,0-0.2c0-0.5,0-1,0-1.5c0-0.5,0-1,0.1-1.5c0-0.5,0.1-1,0.2-1.4c0.1-0.4,0.2-0.8,0.3-1.1v0    c0.2-0.7,0.5-1.2,0.8-1.7c0.4-0.5,0.8-0.9,1.2-1.3h0c0.5-0.4,1.1-0.7,1.7-0.9c0.6-0.2,1.3-0.3,2-0.3c0.9,0,1.8,0.2,2.6,0.6    c0.8,0.4,1.4,0.9,2,1.6c0.5,0.6,0.9,1.4,1.1,2.3c0.3,0.9,0.4,1.8,0.4,2.8c0,1-0.1,1.9-0.4,2.8s-0.6,1.6-1.1,2.3v0    C133.7,22.4,132.2,23.2,130.2,23.2z M127.1,12.2c-0.8,1-1.2,2.3-1.2,3.7c0,0.8,0.1,1.6,0.4,2.2c0.2,0.6,0.5,1.2,0.9,1.6    c0.4,0.4,0.8,0.8,1.4,1c0.5,0.3,1.1,0.4,1.8,0.5c0.7,0,1.3-0.2,1.8-0.4c0.5-0.3,0.9-0.6,1.2-1.1v0c0.3-0.5,0.6-1.1,0.7-1.8    c0.2-0.6,0.3-1.3,0.3-2c0-1.5-0.4-2.8-1.1-3.8c-0.6-1-1.7-1.5-3-1.5c-0.7,0-1.3,0.1-1.8,0.4C127.9,11.3,127.4,11.7,127.1,12.2z"/>
	</g>
</g>
</svg>