<svg xmlns="http://www.w3.org/2000/svg" width="150" height="42" viewBox="0 0 150 42" fill="none">
<path d="M138.595 9.68253C135.919 9.68253 133.103 10.6548 131.325 12.3413L131.644 10.2182H121.738L121.019 15.3373C119.521 10.0397 114.168 6.70634 106.977 6.70634C103.342 6.70634 100.126 7.57936 97.5699 9.06745C96.2317 3.6111 90.8189 0.158722 83.5087 0.158722C75.5193 0.158722 69.6272 4.30555 68.2091 10.2182H63.2357L56.6245 22.2817L55.0666 10.2182H45.9188L39.6272 22.2817L37.7097 10.2182H27.2636L27.6232 11.8254C24.6072 10.4762 20.6724 9.68253 16.5579 9.68253C7.72969 9.68253 2.81625 13.4127 2.81625 18.4127C2.81625 23.5119 8.20905 24.5833 12.9028 25.1984C17.237 25.7738 18.5353 25.6944 18.5353 26.5278C18.5353 27.1428 17.5965 27.5 15.1798 27.5C10.9055 27.5 6.25166 26.0913 3.79494 24.127L0 30.8333C3.39547 32.9563 9.00799 34.246 14.5606 34.246C23.4887 34.246 28.7617 30.5159 28.7617 25.1587C28.7617 20.1587 22.47 18.8095 17.8162 18.3333C14.3409 17.9762 13.0027 17.7976 13.0027 17.1428C13.0027 16.5278 13.8016 16.25 15.719 16.25C18.755 16.25 22.51 17.2222 25.2663 18.7698L28.3222 14.9405L32.4967 33.7103H42.1838L48.6951 21.2103L50.7124 33.7103H60.0399L69.1478 18.1944C71.3249 22.2619 76.1385 24.7222 82.3103 24.7222C85.9454 24.7222 89.1611 23.8492 91.7177 22.3611C93.0759 27.8175 98.4887 31.2698 105.799 31.2698C112.17 31.2698 117.224 28.6309 119.72 24.5436L117.364 41.25H127.27L128.648 31.5873C130.606 33.1746 133.242 34.246 136.378 34.246C144.807 34.246 150.04 27.8968 150.04 20.9921C150.02 14.7421 145.905 9.68253 138.595 9.68253ZM82.6099 17.004C79.7936 17.004 77.6565 15.496 77.6565 12.8373C77.6565 10.2182 79.7137 7.87698 83.1891 7.87698C86.0053 7.87698 88.1425 9.38491 88.1425 12.0436C88.1425 14.6627 86.1052 17.004 82.6099 17.004ZM106.099 23.5516C103.282 23.5516 101.145 22.0436 101.145 19.3849C101.145 16.7659 103.202 14.4246 106.678 14.4246C109.494 14.4246 111.631 15.9325 111.631 18.5913C111.631 21.2103 109.574 23.5516 106.099 23.5516ZM134.66 26.5278C131.844 26.5278 129.667 25.0198 129.667 22.3611C129.667 19.7024 131.764 17.4008 135.24 17.4008C138.056 17.4008 140.233 18.9087 140.233 21.5675C140.233 24.2262 138.136 26.5278 134.66 26.5278Z" fill="#3D117A"/>
</svg>