<svg xmlns="http://www.w3.org/2000/svg" xmlns:xlink="http://www.w3.org/1999/xlink" width="154.675" height="49.173" viewBox="0 0 154.675 49.173"><defs><linearGradient id="a" x1="1" y1="0.5" x2="0" y2="0.5" gradientUnits="objectBoundingBox"><stop offset="0.113" stop-color="#6e1462"/><stop offset="0.544" stop-color="#bb1e54"/><stop offset="0.849" stop-color="#ec254b"/><stop offset="1" stop-color="#ff2848"/></linearGradient></defs><g transform="translate(-253.946 -517.316)"><path d="M280.6,548.691c0-10.336,7.262-17.625,18.192-17.625,11,0,18.263,7.289,18.263,17.625s-7.262,17.625-18.122,17.625C287.937,566.316,280.6,559.027,280.6,548.691Zm18.333,9.011c4.866,0,8.251-3.711,8.251-9.077,0-5.3-3.455-9.011-8.392-9.011-4.866,0-8.32,3.711-8.32,9.011C290.476,553.991,294,557.7,298.937,557.7Zm-22.306-.1a9.672,9.672,0,0,1-3.263.9c-2.552,0-3.829-1.532-3.829-5V539.58h8.647v-7.46H269.54V521.729h-9.924V532.12h-5.67v7.46h5.67V555.5c0,7.059,4.112,10.99,12.121,10.99a21.307,21.307,0,0,0,8.867-2.266A22.2,22.2,0,0,1,276.631,557.6Zm45.015-25.471h9.871l-.071,33.129h-9.871Zm16.007,0h9.308l.353,4.107a11.929,11.929,0,0,1,10.224-5.168c5.852,0,9.942,2.386,11.846,7.222a12,12,0,0,1,11.352-7.222c8.533,0,13.187,5.036,13.116,15.24h-.071v18.95h-9.872V548.293h.071c0-6.228-2.468-8.282-6.205-8.349-4.583-.065-7.122,2.651-7.122,7.886v17.426h-9.871V548.293c0-6.228-2.468-8.282-6.2-8.349-4.16-.065-6.629,2.121-7.051,6.428v18.884h-9.872Zm61.068,33.129h9.9a9.9,9.9,0,0,0-9.9-9.9Zm-77.081-47.94v9.9a9.9,9.9,0,0,0,9.9-9.9Z" fill="url(#a)"/></g></svg>